<svg width="116" height="199" viewBox="0 0 116 199" fill="none" xmlns="http://www.w3.org/2000/svg">
<g clip-path="url(#clip0_41_98)">
<path d="M37.9061 163.736C38.0388 146.744 38.1694 129.753 38.2979 112.761C38.6478 111.089 38.388 109.429 41.319 109.496C45.4002 109.59 46.5567 107.196 43.9399 104.332C41.671 101.853 40.7701 98.7547 38.983 96.0914C38.541 93.2149 38.4781 90.3468 39.1087 87.487C39.4586 86.2139 40.349 85.2167 40.8832 84.0356C43.0328 79.7438 43.4455 75.0256 44.2144 70.3972C44.4565 69.7235 44.8941 69.1369 45.4715 68.7123C46.6028 68.1458 47.9248 67.828 48.48 66.4734C48.922 65.6602 49.3809 64.8658 50.1937 64.3578C50.8719 64.0834 51.6122 63.9988 52.3349 64.1132C54.2477 64.6233 56.2883 64.4205 58.1697 65.1313C62.4185 67.5479 59.5818 70.2614 58.5007 72.9058C57.3358 74.3399 54.2435 73.349 54.1346 75.4709C53.9858 78.3202 57.6082 76.4011 58.6641 78.1655C59.6446 80.8831 59.8499 83.7366 62.2739 86.0445C64.3564 88.0284 63.554 91.1683 62.0225 93.4282C59.6802 96.8858 59.1669 100.59 59.5273 104.593C59.498 101.617 61.6266 100.714 63.9311 100.139C67.0381 99.3484 69.4935 100.185 70.826 103.331C70.1179 107.221 72.632 109.778 74.6663 112.548C75.2257 113.802 75.5043 115.142 75.2047 116.457C72.5649 127.999 73.6271 139.586 74.5238 151.205C74.9952 157.339 74.7333 163.518 74.5909 169.675C74.549 171.69 74.2913 173.684 72.5901 175.122C70.5641 176.327 68.4879 176.391 66.3698 175.384C64.0254 173.402 65.2343 170.367 64.1721 168.006C63.947 167.174 63.8129 166.319 63.7719 165.458C61.5323 150.973 59.7661 136.413 57.1766 121.976C56.877 120.232 57.34 118.136 54.0927 119.902C48.591 122.898 46.4624 126.736 46.1963 133.317C45.6851 145.92 45.9387 158.589 44.403 171.155C44.2416 172.482 44.139 173.812 43.2213 174.903C41.6836 176.117 40.0368 176.124 38.3168 175.361C37.8289 175.035 37.4444 174.578 37.2085 174.042C37.2085 170.588 34.0324 166.921 37.9061 163.736Z" fill="#BA422D"/>
<path d="M107.337 191.729C109.935 193.45 113.695 191.913 116 194.717C104.84 200.33 13.3687 200.493 0 194.809C2.975 192.3 6.81317 193.17 9.79656 191.642C17.1293 188.297 25.0152 188.284 32.8235 187.868C36.3516 189.775 32.3165 191.117 32.4736 192.762C39.7163 194.117 46.0916 192.135 51.9033 187.908C56.5921 186.946 61.2851 187.072 65.9759 187.782C71.1319 191.963 77.4988 192.461 83.6877 193.46C84.5027 193.592 86.2751 194.142 85.7618 191.997C85.0767 190.91 84.3539 189.821 86.0467 188.97C93.4109 187.87 100.511 188.763 107.337 191.729Z" fill="#B78757"/>
<path d="M107.337 191.729C99.8742 191.621 92.6253 189.012 85.0788 189.848C80.6477 188.594 78.6427 186.123 78.6721 181.542C78.6888 179.257 78.7768 176.985 78.4123 174.717C78.4123 173.906 78.5904 173.17 79.2964 172.662C82.6108 172.158 80.4885 176.437 83.5285 176.809C80.9557 172.093 84.9384 168.807 85.567 164.762C87.5887 165.623 86.6606 168.126 88.2193 169.361C90.2222 167.17 87.2221 164.883 88.609 162.655C91.1357 165.602 90.8822 169.311 91.4395 173.86C92.994 169.526 91.8271 166.215 92.2461 162.839C94.5674 163.884 93.5576 166.255 94.5276 167.971C96.1261 166.188 95.8182 163.853 96.96 161.881C97.0962 164.833 97.2302 167.785 97.379 171.1C99.1137 169.054 99.055 166.84 99.8093 163.612C100.077 167.636 100.128 170.563 102.439 172.779C104.037 171.943 102.217 169.748 104.299 168.504V175.543C105.608 177.533 106.604 179.876 105.902 182.052C105.16 184.362 106.589 182.644 106.926 182.855C109.021 184.166 108.812 186.098 108.338 188.096C108.005 189.306 107.671 190.517 107.337 191.729Z" fill="#E5B370"/>
<path d="M34.2335 189.026C27.4664 188.982 20.8711 190.513 14.1878 191.228C12.7213 191.382 11.2547 191.506 9.78818 191.646L5.93953 181.852C5.14759 179.604 5.95628 178.986 8.10583 179.726L9.7358 182.132C10.5738 179.458 7.55273 176.548 10.8734 174.247C11.5019 173.816 10.3811 171.738 12.782 173.237C14.389 174.247 14.8771 171.882 15.139 170.433C15.2542 169.806 15.579 169.656 15.8639 170.275C16.0629 170.693 16.0022 171.251 16.0566 171.738C17.0141 172.737 16.8947 173.789 16.3625 174.913C17.2005 173.166 17.5295 171.138 18.864 169.612L19.084 164.735L19.5847 164.695C19.8257 166.037 20.0687 167.379 20.4647 169.589L22.7546 161.701C22.9285 165.151 23.0437 167.398 23.1924 170.321C24.5994 168.01 25.5601 165.458 26.025 162.795C29.6788 163.899 27.3637 166.386 27.3323 168.351C27.3197 169.008 27.5125 169.652 27.5146 170.31C27.6068 169.773 27.479 169.229 27.5628 168.69C27.6864 167.908 28.2332 167.645 28.912 167.505C31.7341 168.968 32.4464 171.525 32.6391 173.985C32.3521 175.068 33.3598 174.798 32.6936 174.748C32.5721 174.748 32.5071 174.627 32.5909 174.453C33.2991 172.99 32.6329 170.155 35.3271 170.601C37.7344 170.996 36.7706 173.527 37.087 175.179C37.4033 176.83 36.1442 178.841 38.0235 180.246C41.076 184.981 39.6702 188.224 34.2335 189.026Z" fill="#E7B371"/>
<path d="M79.2964 172.651C79.2587 173.279 79.2189 173.922 79.1812 174.558C77.9346 176.291 76.1203 176.086 74.3311 175.986C73.4302 175.812 72.6173 175.482 72.083 174.679C74.2095 165.868 73.0258 156.971 72.7116 148.105C72.3512 137.776 70.5327 127.409 73.8324 117.205C74.4212 115.389 74.1467 113.601 73.1725 111.942C73.3291 111.47 73.5922 111.041 73.9414 110.687C75.0287 109.688 76.2145 108.258 77.7125 108.735C79.4829 109.303 78.1315 111.434 78.9151 112.657C78.9989 131.166 79.0841 149.676 79.1707 168.186C79.1707 169.681 79.2503 171.167 79.2964 172.651Z" fill="#923025"/>
<path d="M39.9048 96.7939C39.5382 98.4454 45.8779 96.3758 41.7506 100.111C42.6096 100.962 43.4748 101.809 44.3254 102.668C45.9722 104.341 48.1154 106.431 46.7872 108.553C45.7271 110.25 43.7451 112.784 40.4475 110.562C38.4152 109.193 39.5277 112.473 38.2979 112.774C38.1429 110.131 36.9655 108.536 34.9647 106.423C27.0914 98.1067 17.894 90.2276 18.0071 77.1788C18.026 75.1155 18.3256 73.2069 19.8634 71.6934C23.6701 70.5394 25.0466 73.9448 27.3323 75.6444C27.701 79.3466 27.5607 83.1033 28.4553 86.7616C28.9644 88.8521 29.3101 91.0387 32.1028 91.2792C32.5819 91.3807 33.0229 91.6144 33.3755 91.9537C33.7281 92.2929 33.9782 92.7241 34.0973 93.1982C34.8473 96.3758 37.1687 96.8775 39.9048 96.7939Z" fill="#F6A981"/>
<path d="M22.0422 67.8845C27.1605 60.0451 33.1294 53.0085 41.0655 47.8304C43.0705 51.6393 44.2249 55.6384 43.8017 59.9908C43.2486 61.4123 41.7255 62.0499 41.0446 63.3732C38.0758 67.1256 34.9416 70.7129 30.8855 73.3699C26.6786 73.5643 23.7183 71.7539 22.0422 67.8845Z" fill="#F9F2E8"/>
<path d="M78.9088 112.667C78.5045 111.5 78.1001 110.334 77.6832 109.124L73.1767 111.942C70.6626 109.893 67.52 108.087 70.208 104.083C70.8679 100.385 70.518 95.8385 76.5099 96.6204C79.6086 97.1932 81.1191 95.7194 81.733 92.8052C82.3929 89.728 82.8266 86.6215 83.3315 83.5151C84.1863 80.3396 83.6018 76.3886 87.8925 75.0674C88.6799 74.9181 89.4949 75.0474 90.1971 75.4332C93.3941 79.378 92.5016 83.651 90.7732 87.7128C87.7437 94.8811 84.8421 102.177 79.1309 107.821C79.0541 109.438 78.98 111.053 78.9088 112.667Z" fill="#F5A880"/>
<path d="M67.9537 29.8418C69.2107 34.7711 66.7972 38.4379 63.7636 41.8893C61.7481 46.3608 58.2326 46.4361 54.2394 45.1274C52.821 44.5525 51.9872 43.3777 51.1994 42.1527C46.8312 38.4149 46.0309 33.3245 45.8213 28.0105C44.7591 25.6482 44.5832 23.0498 43.6383 20.6039C41.9371 16.1971 45.2913 13.0572 50.2336 13.9854C51.2413 16.2849 49.031 17.6291 48.5575 19.4897C48.4737 20.3112 48.3711 21.1307 48.348 21.9585C48.1385 28.9052 48.1385 28.901 54.937 28.6941C55.4342 28.7023 55.9292 28.7618 56.414 28.8718C60.3318 28.4746 64.1051 29.6014 67.9537 29.8418Z" fill="#25161E"/>
<path d="M79.1309 107.821C82.4977 101.849 85.5188 95.7068 88.5587 89.5608C90.8466 84.9366 91.4206 80.5717 90.1049 75.7635C90.8361 71.9149 92.3823 71.1644 96.2833 72.724C99.1116 79.4135 97.1318 85.9191 93.5744 91.1642C89.4911 97.1701 86.0342 104.096 79.1309 107.821Z" fill="#EE9B71"/>
<path d="M50.2021 14.8258C45.5196 14.3763 43.7535 16.1595 44.8261 20.3342C45.4735 22.8595 46.8835 25.2698 45.8276 28.0105C44.1683 24.4232 41.4028 22.0965 38.124 19.8576C35.4654 18.0368 37.0765 14.9428 38.874 12.8837C40.4027 11.1017 42.536 9.94441 44.866 9.63298C47.246 8.05466 49.8438 8.32015 52.4606 8.72571C56.259 10.1514 60.6314 9.52009 64.1721 11.8803C64.5387 12.7436 64.1721 13.4272 63.6294 14.0648C62.8561 14.7631 61.9299 15.2714 60.9247 15.5491C57.7821 15.9881 54.696 14.5644 51.5409 15.3066C51.0521 15.307 50.5785 15.137 50.2021 14.8258Z" fill="#A4734D"/>
<path d="M58.1991 65.9006C56.1186 65.3591 53.8287 66.2518 51.8573 64.9703C52.4397 63.8749 53.7638 63.6679 54.5138 62.8046C57.1934 59.7211 55.7709 55.6969 51.7735 54.9736C46.621 54.0329 44.7187 50.9801 46.0665 45.8152L50.0702 43.8585C51.8468 45.487 51.4215 48.5621 53.9419 49.6888C59.6321 52.4065 62.7642 48.7147 65.8838 44.9811C68.0249 44.6298 69.481 46.1705 71.2304 46.9064C72.2277 48.307 72.2779 49.6533 71.0062 50.9222C68.2973 52.8037 66.1876 55.7408 62.0875 54.9966C60.5057 54.7102 60.3674 56.7045 60.4261 57.9964C60.5204 59.997 59.6656 62.3718 62.4143 63.4798C63.508 63.9188 65.2008 63.6888 65.2134 65.6058C62.9674 68.0203 60.5791 66.603 58.1991 65.9006Z" fill="#DBC6B5"/>
<path d="M74.9764 47.8994C83.4405 52.3187 88.1607 60.1748 93.237 67.7026C92.9961 70.2112 91.2278 71.3484 89.1453 72.193C88.6695 72.2209 88.1995 72.077 87.8213 71.7874C84.1025 64.8888 79.441 58.7198 73.6586 53.3911C73.206 51.3466 73.7486 49.5488 74.9764 47.8994Z" fill="#DBD3CC"/>
<path d="M46.0665 45.8152C47.1727 52.9354 47.401 53.1319 55.0899 53.341C55.7604 53.3577 56.3072 53.2302 56.787 53.897C59.301 57.3986 56.192 64.4414 51.8572 64.9766L50.1812 65.1125C49.9506 65.1964 49.7026 65.2212 49.46 65.1847C49.2173 65.1482 48.9877 65.0515 48.7922 64.9035C47.5456 63.0638 47.7907 60.6409 46.3954 58.8578C44.6565 55.0363 44.4554 50.7906 43.0621 46.8709C43.7493 45.6124 44.954 45.8445 46.0665 45.8152Z" fill="#F8F0E6"/>
<path d="M53.0807 9.81697L44.866 9.6351C47.7655 1.39439 49.5024 0.0355688 57.1829 0.00421143C59.8457 2.30375 57.956 4.96703 57.8114 7.49653C57.522 8.17659 57.0607 8.77011 56.4727 9.21909C55.4084 9.73126 54.3336 10.2831 53.0807 9.81697Z" fill="#DAAE84"/>
<path d="M63.1078 13.7659L64.1553 12.7917C67.4865 10.5047 70.7967 12.6412 74.1174 12.8335C76.5246 13.352 78.2112 15.0202 77.9388 17.2674C77.4988 20.9049 74.1027 21.8143 71.2052 22.9766C70.9223 23.1817 70.5896 23.3077 70.2415 23.3415C69.8935 23.3753 69.5427 23.3157 69.2254 23.1689C68.0668 22.155 68.5235 20.8443 68.6136 19.6151C68.7205 18.1852 67.7903 18.1517 66.7888 18.1517C64.8677 17.2695 64.1407 15.3923 63.1078 13.7659Z" fill="#98684B"/>
<path d="M65.8838 44.9811C63.5079 51.6706 59.8374 53.3305 53.1478 50.7216C51.8677 48.3049 52.5193 46.158 54.0759 44.1386C58.0188 46.4277 60.8514 43.9588 63.7719 41.8871C64.0925 43.1791 64.8467 44.1762 65.8838 44.9811Z" fill="#E47D5E"/>
<path d="M67.9537 29.8418C66.3405 30.8745 65.0206 33.013 62.8417 30.2849C61.2704 28.3282 58.9575 30.7219 57.009 30.055C58.4756 27.5109 60.3612 25.1716 58.6851 21.8247C58.1236 20.7105 59.4519 19.4896 60.7802 18.9691C66.5542 19.0423 68.4754 21.3815 68.3224 28.1443L67.9537 29.8418Z" fill="#E6856B"/>
<path d="M57.0363 7.64283C57.0851 5.09522 57.134 2.54761 57.1829 0C62.6636 0.6815 68.247 1.23339 68.402 8.73198C68.1925 8.94102 67.983 9.15007 67.7735 9.35912C64.0045 10.0176 60.3549 9.86711 57.0363 7.64283Z" fill="#B3865E"/>
<path d="M108.347 188.088C106.566 184.043 104.217 180.181 104.307 175.545L105.189 174.798C105.523 174.322 105.845 174.351 106.157 174.817C106.218 176.134 106.279 177.451 106.367 179.489C108.376 175.704 109.509 172.049 112.95 169.129C112.059 173.272 109.56 176.214 109.369 180.894L113.322 176.099L114.196 176.638C112.244 180.453 110.294 184.269 108.347 188.088Z" fill="#E0BA82"/>
<path d="M68.3308 28.1442C67.2644 27.3875 67.1911 26.2628 67.0926 25.0921C66.7302 20.7774 63.8033 19.7802 60.1013 19.8492C58.4127 19.2722 56.5774 19.0987 55.0459 18.0618C54.9248 17.8655 54.8481 17.6452 54.8213 17.4163C54.7946 17.1873 54.8183 16.9553 54.8909 16.7364C56.5334 14.9533 59.081 16.3978 60.8556 15.0641C61.3144 14.1233 62.1566 13.8557 63.1099 13.7742C65.9613 13.6488 65.6763 16.5378 67.0381 17.8444C69.9608 19.3935 67.6813 23.0037 69.8392 24.8559C69.9767 25.3783 69.9915 25.9253 69.8825 26.4543C69.7735 26.9833 69.5436 27.4801 69.2107 27.9059C68.9455 28.0658 68.6406 28.1484 68.3308 28.1442Z" fill="#CA725A"/>
<path d="M43.0664 46.8625C46.9318 49.8456 45.6475 54.6893 47.2816 58.4793C46.6636 60.2709 45.5343 61.3705 43.5105 61.2409L42.905 60.8228C43.4812 56.322 40.3092 52.3479 41.0718 47.822L43.0664 46.8625Z" fill="#B6402D"/>
<path d="M22.0423 67.8845C24.7784 69.975 27.2318 72.5964 31.0134 72.7992C33.0351 71.6473 33.9234 72.8327 34.575 74.5134C34.4954 76.6164 33.3766 77.7997 31.3276 78.1571C29.7396 77.6659 28.2562 76.9718 27.0181 75.8262C23.9069 75.6945 23.0039 71.7665 19.8655 71.6829C20.5904 70.416 21.316 69.1499 22.0423 67.8845Z" fill="#DCC2A9"/>
<path d="M74.9764 47.8994C75.8794 49.9899 74.2054 51.8107 74.3479 53.8239C75.5819 56.0105 74.7501 57.731 73.1202 59.278C71.6808 60.0013 70.2771 60.0054 68.93 59.0564C67.1932 56.0126 68.4335 53.4559 70.2604 50.9954C71.3268 49.808 70.9015 48.2673 71.2409 46.9064L74.9764 47.8994Z" fill="#892E25"/>
<path d="M74.1111 12.8335L64.1407 12.7917C60.6943 10.8978 56.4496 11.9555 53.0724 9.81697L55.863 8.80308C59.8918 8.10277 63.8872 11.1382 67.9285 8.90552L68.3937 8.732C68.5571 12.5221 72.2465 11.4141 74.1111 12.8335Z" fill="#CEA07E"/>
<path d="M89.072 71.7811L93.2307 67.7026C94.515 69.2098 95.8852 70.6669 96.2749 72.7198C93.5031 72.287 91.3745 73.1588 90.0986 75.7572L88.1167 75.7071C87.4399 74.1538 88.1271 72.9351 89.072 71.7811Z" fill="#CDB29C"/>
<path d="M54.0843 44.1386C54.4153 46.4235 53.6276 48.5517 53.1562 50.7216C50.2734 49.2582 49.9926 46.643 50.0785 43.8585C50.4556 43.2899 50.8334 42.7206 51.2119 42.1506L54.0843 44.1386Z" fill="#EC9D78"/>
<path d="M18.864 169.62C17.8165 172.643 18.7048 177.004 12.7883 177.928C14.2549 175.304 16.5783 174.165 16.0629 171.746C17.3053 171.449 16.5532 168.521 18.864 169.62Z" fill="#F6C4A7"/>
<path d="M8.10581 179.726C6.74821 179.79 6.01074 180.48 5.93951 181.852L1.53986 177.784C2.50778 175.756 6.81734 180.468 5.17271 174.84C7.05199 176.379 7.86279 177.905 8.10581 179.726Z" fill="#DFC491"/>
<path d="M106.151 174.809C105.828 174.809 105.506 174.803 105.183 174.79C105.33 172.152 106.057 169.708 108.037 166.691C107.76 170.097 107.421 172.549 106.151 174.809Z" fill="#E5CFA9"/>
<path d="M69.2128 27.8997C69.1667 26.8433 69.1199 25.7876 69.0724 24.7326C68.5801 24.0385 68.4439 23.3946 69.3406 22.9034L71.1989 22.9745C70.7003 24.6824 72.5209 27.3206 69.2128 27.8997Z" fill="#E57E70"/>
<path d="M43.0768 174.535C43.743 158.459 44.403 142.383 45.0566 126.305C45.1488 124.006 46.2739 122.613 48.3794 121.855C50.7678 120.993 52.7246 119.465 54.5913 117.793C55.6619 116.831 56.7115 115.148 58.3624 116.279C59.7976 117.266 58.419 118.692 58.2304 119.927C58.1622 120.587 58.1307 121.25 58.1362 121.913C59.4686 131.256 57.1724 140.339 56.1647 149.508C55.1779 154.211 55.0376 159.03 54.2645 163.763C52.756 167.467 54.1974 171.562 52.7602 175.279C49.9926 177.305 47.0847 175.877 44.2207 175.624C43.7132 175.421 43.3034 175.031 43.0768 174.535Z" fill="#943125"/>
<path d="M58.199 65.9006C60.5581 65.4992 63.0366 66.0281 65.3097 64.9703C65.8209 64.316 66.4411 64.3432 67.1094 64.686C67.4437 64.981 67.72 65.3354 67.9244 65.7313C68.3664 68.1563 69.8707 66.6197 70.9999 66.5445C71.4219 66.814 71.7595 67.1965 71.9742 67.6483C72.8122 76.537 76.0679 84.9471 77.0736 93.7982C77.3061 95.2615 77.1574 96.6225 76.0847 97.7555C74.4086 98.2509 70.4594 96.2692 72.7766 101.075C73.4051 102.365 71.0398 103.001 70.208 104.075C69.0578 101.811 67.5263 100.298 64.677 101.033C61.6999 101.805 59.3199 103.024 59.8081 106.897C58.0796 102.089 56.8037 97.7618 60.6461 93.1961C62.5317 90.9551 64.193 87.5226 59.1439 85.2523C56.7136 84.1569 58.5028 80.3522 58.0712 77.8143C56.5586 76.1545 56.8352 74.4904 58.0545 72.8243C57.2102 70.4976 61.2076 68.2754 58.199 65.9006Z" fill="#8D2E24"/>
<path d="M67.1387 188.809L51.1868 188.775C48.4192 185.171 49.9864 181.532 51.0884 177.905C52.5172 176.375 52.5759 174.508 52.6408 172.536C52.7141 170.396 52.2679 167.937 54.7359 166.589C57.4385 168.355 56.831 171.207 57.449 173.726C57.3233 171.617 56.7346 169.581 56.2779 167.5C55.8211 165.42 55.2618 163.251 57.4029 161.647C59.1544 161.77 59.3388 163.719 61.0274 164.306C61.7376 163.917 61.0274 161.589 62.6699 161.95C64.6225 162.368 63.8935 164.289 64.0799 165.65C63.9689 168.04 63.3152 170.379 63.4514 172.789C64.1868 171.184 62.5589 168.761 65.1819 167.806C66.858 169.942 65.6009 172.614 66.462 174.888C67.9872 179.456 69.9231 184.02 67.1387 188.809Z" fill="#E6B371"/>
<path d="M67.1387 188.809C68.1863 184.103 65.5297 179.573 66.4683 174.872L72.0831 174.679L74.2117 174.888C74.9177 175.323 75.7222 175.777 75.6594 176.715C75.0958 185.182 81.1757 188.487 87.3289 191.744C89.0679 193.048 90.5868 194.432 86.8596 194.754C83.2436 195.068 79.6128 194.771 76.1748 193.567C74.0797 192.831 72.4162 191.641 69.7701 192.49C67.2833 193.295 67.4928 190.479 67.1387 188.809Z" fill="#3C343D"/>
<path d="M34.2335 189.026C39.2491 185.719 39.8713 183.898 37.0639 180.75C36.0709 178.451 35.4444 176.22 38.1219 174.55L43.0768 174.537L43.0454 175.003C44.6774 177.917 44.9309 181.275 45.6873 184.41C46.4645 187.603 42.9637 191.966 39.402 192.981C36.3956 193.834 33.2865 194.654 30.2738 192.844C30.8164 190.757 33.2907 190.684 34.2335 189.026Z" fill="#3C3239"/>
<path d="M40.0578 62.838C40.0955 60.8876 41.4426 60.781 42.8987 60.8311L43.2528 60.7266C44.4511 62.0541 45.4358 63.5028 45.9219 65.2484C46.4163 66.858 45.8863 68.3067 45.2096 69.7304C44.5685 74.8291 44.8136 80.1285 41.7736 84.6795C40.0976 84.6042 40.1374 83.2746 40.1143 82.1939C39.9698 75.7426 37.7427 69.2935 40.0578 62.838Z" fill="#F7EFE7"/>
<path d="M40.0578 62.838C41.4887 63.9648 41.2017 65.5097 40.8497 66.9082C39.335 72.9414 41.296 78.7675 41.7737 84.6774C41.2387 85.455 40.7038 86.2334 40.1688 87.0124C39.4942 83.4419 38.5053 79.8943 38.2309 76.2924C37.9062 72.0424 36.404 72.8535 34.2 74.9148C33.5547 73.5852 32.5239 72.841 31.0134 72.7971L40.0578 62.838Z" fill="#DDD7CF"/>
<path d="M38.122 174.56C35.7084 176.276 37.7134 178.741 37.0639 180.763C35.2098 180.652 34.8264 179.619 35.4319 178.064C36.293 175.85 36.3998 173.661 35.3837 171.019C33.3012 172.564 33.5128 174.849 32.5197 177.188C31.9645 173.546 30.9694 170.542 29.0063 167.954C30.0287 165.926 31.0504 163.897 32.0714 161.867C32.5344 162.032 33.4122 162.228 33.4018 162.356C33.0351 166.894 36.6324 169.854 37.8936 173.726C38.0429 173.979 38.1217 174.267 38.122 174.56Z" fill="#EBC596"/>
<path d="M58.0461 72.8264C58.0461 74.4876 58.0517 76.1509 58.0628 77.8164C56.3868 78.6358 54.673 79.4658 52.9865 77.9606C52.4859 77.5032 52.1472 76.8963 52.0211 76.2309C51.895 75.5654 51.9882 74.877 52.2867 74.2688C53.5291 71.6034 56.104 73.2758 58.0461 72.8264Z" fill="#C0543A"/>
<path d="M45.2096 69.7304C45.1035 68.1709 44.9959 66.612 44.887 65.0539C45.9911 61.8994 46.2194 61.8847 49.1274 64.778L50.1749 65.1062C49.9047 65.6518 49.6344 66.1953 49.362 66.741C47.8955 66.812 47.1475 68.0371 46.0874 68.7604L45.2096 69.7304Z" fill="#4A190D"/>
<path d="M46.0958 68.7604C46.0162 66.1995 46.6636 64.8094 49.3704 66.7389C49.1483 68.8168 48.6476 70.4537 46.0958 68.7604Z" fill="#EAA051"/>
<path d="M30.2801 192.833C35.9221 192.703 41.8763 193.266 44.3171 186.279C44.6481 185.337 45.4652 184.038 44.6879 183.507C41.2059 181.135 43.4853 177.836 43.0391 175.001C45.9722 174.838 48.9723 174.025 51.7713 175.683C52.7602 176.176 52.5549 176.924 52.2029 177.702C51.5911 181.369 50.4577 184.985 51.1805 188.782C50.9501 191.455 50.7238 194.048 46.873 192.003C45.4672 191.255 44.4113 192.545 43.3114 193.101C39.6178 194.965 35.6728 194.788 31.7299 194.721C30.4791 194.692 29.9616 194.077 30.2801 192.833Z" fill="#2A1C27"/>
<path d="M87.329 191.75C80.1596 191.426 77.2579 185.541 73.6607 180.852C72.6404 179.523 75.9276 177.14 74.2096 174.895L79.1833 174.56C81.3056 175.837 80.5074 178.02 80.1701 179.527C79.0828 184.406 81.1527 187.49 85.0788 189.837L87.329 191.75Z" fill="#291B24"/>
<path d="M31.1956 77.9941C31.5015 82.5667 31.8081 87.1379 32.1154 91.7077C29.7081 93.8526 28.5538 92.2784 28.0216 90.1127C26.8945 85.4237 25.1367 80.7389 27.0181 75.8263C28.7947 75.8117 30.7934 75.3685 31.1956 77.9941Z" fill="#EE9C76"/>
<path d="M84.2534 83.8328C84.3958 80.4608 84.4922 77.1056 81.2092 74.896C82.7323 72.1595 85.0348 71.1331 88.0978 71.7728C88.4268 71.7728 88.7536 71.7832 89.0804 71.7728C89.3172 73.2152 88.8709 74.4904 88.123 75.6966C84.1004 77.1181 86.0782 81.3765 84.2534 83.8328Z" fill="#E1C8B4"/>
<path d="M55.0858 17.7462C56.7807 18.4005 59.5315 16.519 60.0993 19.8492C59.8563 20.6185 59.1544 21.7306 59.4372 22.1069C62.3096 25.9471 60.5078 28.23 57.009 30.0508C55.3749 30.0403 53.5543 29.0181 52.1443 30.0508C47.2251 33.6799 47.5205 29.6034 47.1832 26.752C46.8731 24.1284 46.7055 21.461 47.3571 18.8374C49.7873 17.4723 52.6534 19.1133 55.0858 17.7462Z" fill="#F09B7B"/>
<path d="M62.0037 33.6401C62.4227 35.3021 61.2851 37.6121 60.5225 37.2462C58.0231 36.0087 55.3916 38.5883 53.3448 36.7236C52.3098 35.785 51.2874 33.8157 52.2365 32.6973C53.5249 31.1796 55.5781 32.1663 57.2919 32.6973C56.435 33.7321 55.5006 33.7426 54.4908 33.0234C56.8393 34.7941 59.5315 33.0611 62.0037 33.6401Z" fill="#DB9985"/>
<path d="M55.0858 17.7461C53.1101 22.2951 50.0052 18.9858 47.3571 18.8499L50.2022 14.8257L51.2497 14.7087C52.9509 14.6689 54.4803 14.9323 55.0795 16.8514C55.0921 17.1462 55.0921 17.4472 55.0858 17.7461Z" fill="#D07B61"/>
<path d="M62.0037 33.6402C59.2633 34.4764 56.4811 36.1759 53.7428 33.1907L57.2898 32.6932C58.8506 33.0674 60.688 32.066 62.0037 33.6402Z" fill="#FBF3E6"/>
<path d="M55.0836 16.8514C53.8056 16.1393 52.529 15.425 51.2538 14.7087C54.562 11.8573 57.6732 14.4536 60.8535 15.0578C59.5315 17.5747 57.1578 16.7281 55.0836 16.8514Z" fill="#261219"/>
<path d="M67.013 64.9515L65.3097 64.9703C59.5588 64.5251 57.0174 60.0681 59.1796 54.3569C59.7452 52.858 60.6461 52.7995 61.8675 53.2531C65.1694 54.4823 67.3461 53.9493 68.7184 50.1927C69.4119 48.2966 69.8414 50.4122 70.2499 50.9891C69.7806 53.4852 69.3106 55.9805 68.8399 58.4752C69.0125 59.0896 68.9734 59.744 68.7289 60.3336C68.1528 61.6924 68.3329 63.2708 67.5305 64.5669L67.013 64.9515Z" fill="#F6EFE5"/>
<path d="M88.0978 71.7728L81.2071 74.896C81.0353 73.0605 80.1784 71.894 78.1923 71.8355C77.7251 71.6703 77.216 71.0934 76.9164 71.1812C71.2597 72.8138 71.5006 68.7562 71.1005 65.286C71.0523 64.6098 71.1276 63.9305 71.3226 63.2812C71.5241 62.6695 71.7999 62.0847 72.1438 61.5398C72.8645 60.7872 72.7723 59.7796 72.9651 58.8577C73.426 57.1853 73.8855 55.5074 74.3437 53.8238C77.4527 53.4204 78.3955 56.3324 79.5562 57.9609C82.6904 62.3509 87.8736 65.587 88.0978 71.7728Z" fill="#F7F0E6"/>
<path d="M49.1274 64.778C47.7404 65.2818 46.0853 61.6945 44.8869 65.054C43.8394 63.7997 43.1522 62.4137 43.2528 60.7287L47.2816 58.4794C50.1686 59.9155 48.5596 62.6645 49.1274 64.778Z" fill="#65332F"/>
<path d="M67.9369 8.90548C68.2239 10.6155 67.0989 10.7409 65.8418 10.8141C62.3347 11.0231 58.9951 10.4462 55.8672 8.80304L57.032 7.64282L67.9369 8.90548Z" fill="#8C2C1A"/>
<path d="M69.3407 22.9034C69.2506 23.5138 69.1626 24.1222 69.0725 24.7326C67.0361 22.8344 68.576 19.8827 67.0361 17.834C67.1932 17.119 66.8957 16.0508 68.027 15.9923C68.2708 15.9747 68.5155 16.0065 68.7466 16.0858C68.9776 16.1651 69.1902 16.2903 69.3715 16.4538C69.5528 16.6173 69.699 16.8157 69.8013 17.0371C69.9037 17.2585 69.9601 17.4983 69.9671 17.742C69.9608 19.4667 69.5711 21.185 69.3407 22.9034Z" fill="#1F0E14"/>
<path d="M72.9651 58.8577C73.5182 59.857 73.8262 60.8583 72.9944 61.8701C71.5991 62.4011 70.2855 61.452 68.8231 61.7259C67.3608 61.9997 67.5996 60.8144 67.9851 59.8737L68.8441 58.4835L72.9651 58.8577Z" fill="#3E1516"/>
<path d="M72.058 64.709V71.2418C74.681 68.8419 77.2956 66.4483 78.1923 71.8355C76.7153 79.1898 75.8878 86.611 75.9108 94.1201C75.0015 84.8822 70.4846 76.2861 71.0146 66.789C70.4259 65.6288 70.5369 64.8093 72.058 64.709Z" fill="#DBD1CA"/>
<path d="M72.0579 64.709C71.0837 65.0895 71.398 66.1138 71.0104 66.7995L70.6919 66.7431L70.3693 66.7765C69.2568 66.9542 68.1632 66.9856 67.1638 66.3292C67.1135 65.8734 67.0612 65.4156 67.0088 64.9599L67.2832 64.8094C68.3853 62.7189 69.9943 61.9161 72.2863 62.8694C72.2067 63.4854 72.1305 64.0986 72.0579 64.709Z" fill="#2D0F13"/>
<path d="M67.168 66.3187C68.3496 65.6518 69.4726 65.3905 70.3735 66.764C70.1221 67.6315 70.5998 69.0489 69.1751 69.097C67.3733 69.1576 67.1156 67.7716 67.168 66.3187Z" fill="#E69341"/>
<path d="M72.28 62.8736L67.2833 64.8094C67.8552 63.208 66.6904 61.3642 67.9872 59.8674C69.2715 61.5064 71.7709 60.0974 73.0028 61.8659L72.28 62.8736Z" fill="#712620"/>
</g>
<defs>
<clipPath id="clip0_41_98">
<rect width="116" height="199" fill="white"/>
</clipPath>
</defs>
</svg>
